<?xml version="1.0" encoding="utf-8"?>
<!-- Generator: Adobe Illustrator 19.0.0, SVG Export Plug-In . SVG Version: 6.00 Build 0)  -->
<svg version="1.1" id="Capa_1" xmlns="http://www.w3.org/2000/svg" xmlns:xlink="http://www.w3.org/1999/xlink" x="0px" y="0px"
	 viewBox="-447 249.3 63.7 63.7" style="enable-background:new -447 249.3 63.7 63.7;" xml:space="preserve">
<style type="text/css">
	.st0{fill:#FFFFFF;}
</style>
<g>
	<path class="st0" d="M-383.3,278.7c-0.1-1.1-0.7-2.1-1.6-2.7l-11.7-9v-9.1c0-2.3-1.9-4.1-4.1-4.1c-2.3,0-4.1,1.9-4.1,4.1v2.7
		l-7.8-6c-0.7-0.6-1.6-0.9-2.5-0.9c-0.9,0-1.8,0.3-2.5,0.9l-27.7,21.3c-1.8,1.4-2.1,4-0.8,5.8c0.8,1,2,1.6,3.3,1.6
		c0.7,0,1.3-0.2,1.9-0.5v21.5c0,2.3,1.9,4.1,4.1,4.1h18.5V289h6.4v19.5h18.3c2.3,0,4.1-1.9,4.1-4.1v-21.6c0.6,0.4,1.4,0.6,2.2,0.6
		c1.3,0,2.5-0.6,3.3-1.6C-383.5,280.9-383.2,279.8-383.3,278.7z M-387.2,279.4c-0.1,0.1-0.2,0.1-0.2,0.1c-0.1,0-0.1,0-0.2-0.1
		l-5.8-4.5v29.3c0,0.2-0.1,0.3-0.3,0.3h-14.5l0-19.5h-14v19.5h-14.7c-0.2,0-0.3-0.1-0.3-0.3v-29.1l-5.5,4.2c-0.1,0-0.1,0.1-0.2,0.1
		c-0.1,0-0.2,0-0.2-0.1c-0.1-0.1-0.1-0.2-0.1-0.2c0-0.1,0-0.1,0.1-0.2l27.7-21.3c0.1-0.1,0.2-0.1,0.4,0l13.9,10.7v-10.5
		c0-0.2,0.1-0.3,0.3-0.3c0.2,0,0.3,0.1,0.3,0.3v10.9l13.2,10.2c0.1,0.1,0.1,0.1,0.1,0.2C-387.1,279.3-387.1,279.4-387.2,279.4z"/>
</g>
</svg>
