<?xml version="1.0" encoding="utf-8"?>
<!-- Generator: Adobe Illustrator 19.0.0, SVG Export Plug-In . SVG Version: 6.00 Build 0)  -->
<svg version="1.1" id="Layer_1" xmlns="http://www.w3.org/2000/svg" xmlns:xlink="http://www.w3.org/1999/xlink" x="0px" y="0px"
	 viewBox="-459 261.7 40.4 38.3" style="enable-background:new -459 261.7 40.4 38.3;" xml:space="preserve">
<style type="text/css">
	.st0{fill:#00C7E7;}
</style>
<path class="st0" d="M-438.8,264c-8.8,0-15.9,7.6-15.9,16.9c0,4.5,1.6,8.7,4.6,11.8l0,0c3.1,3.3,7,5,11.3,5s8.4-1.9,11.3-5
	c2.9-3.3,4.6-7.5,4.6-11.8C-422.9,271.6-430.1,264-438.8,264z M-428.1,291.2c-1.5-0.8-3.5-1.6-5.7-2.6l-1.7-0.7v-2.6
	c0.7-0.5,1.9-1.5,2-4.1c0.5-0.2,0.8-0.9,0.8-2c0-0.8-0.3-1.4-0.7-1.9c0.3-1.2,0.9-2.9,0.5-4.7c-0.4-2-2.9-2.7-4.9-2.7
	c-1.7,0-4,0.6-4.8,2.1c-0.9,0-1.5,0.5-1.7,0.7c-0.8,1.2-0.3,3.4,0,4.5c-0.4,0.2-0.7,0.9-0.7,1.9s0.3,1.5,0.8,2
	c0.1,2.6,1.3,3.6,2,4.1v2.6l-1.6,0.6c-2.1,0.8-4.4,1.6-5.8,2.7c-2.5-2.8-3.8-6.6-3.8-10.4c0-8.5,6.5-15.4,14.6-15.4
	s14.6,6.9,14.6,15.4C-424.2,284.8-425.5,288.4-428.1,291.2z"/>
</svg>
