<?xml version="1.0" encoding="utf-8"?>
<!-- Generator: Adobe Illustrator 19.0.0, SVG Export Plug-In . SVG Version: 6.00 Build 0)  -->
<svg version="1.1" id="Layer_1" xmlns="http://www.w3.org/2000/svg" xmlns:xlink="http://www.w3.org/1999/xlink" x="0px" y="0px"
	 viewBox="178.4 226.1 518.2 136.3" style="enable-background:new 178.4 226.1 518.2 136.3;" xml:space="preserve">
<style type="text/css">
	.st0{fill:#00A29B;stroke:#00B9AC;stroke-miterlimit:10;}
	.st1{fill:#2ECD9E;}
	.st2{fill:#00B698;}
	.st3{font-family:'Quicksand-Regular';}
	.st4{font-size:122px;}
	.st5{font-family:'Quicksand-Medium';}
</style>
<path class="st0" d="M443.9,125.4"/>
<path class="st1" d="M578.4,260.5c13.8,0,25,11.1,25,24.8c0,7-3,13.4-7.7,17.9l-40.3,40.3l-41-41c-4.3-4.5-7-10.5-7-17.2
	c0-13.7,11.2-24.8,25-24.8c10.4,0,19.3,6.3,23,15.3C559.2,266.8,568.1,260.5,578.4,260.5 M578.4,256.4c-9.2,0-17.6,4.2-23,11.2
	c-5.4-7-13.9-11.2-23-11.2c-16.1,0-29.1,13-29.1,29c0,7.5,2.9,14.6,8.1,20.1l41.1,41.1l3,3l3-3l40.3-40.3c5.7-5.5,8.9-12.9,8.9-20.8
	C607.6,269.4,594.5,256.4,578.4,256.4L578.4,256.4z"/>
<g>
	<text transform="matrix(1 0 0 1 188.7446 327.2354)"><tspan x="0" y="0" class="st2 st3 st4">S</tspan><tspan x="81.4" y="0" class="st2 st5 st4">app</tspan><tspan x="306.1" y="0" class="st2 st3 st4">   rt</tspan></text>
</g>
<path class="st2" d="M478.1,32.2"/>
</svg>
