<?xml version="1.0" encoding="utf-8"?>
<!-- Generator: Adobe Illustrator 19.0.0, SVG Export Plug-In . SVG Version: 6.00 Build 0)  -->
<svg version="1.1" id="Layer_1" xmlns="http://www.w3.org/2000/svg" xmlns:xlink="http://www.w3.org/1999/xlink" x="0px" y="0px"
	 viewBox="-476.7 257.9 44.3 41.3" style="enable-background:new -476.7 257.9 44.3 41.3;" xml:space="preserve">
<style type="text/css">
	.st0{fill:#FD83C0;}
</style>
<title>wqewqeqwewqeqeqwe</title>
<path class="st0" d="M-463.3,291.1c0.2,0.3-3.1-1.2-2.8-1c0,0,4.7-1.8,6.4-2.6l0.2-0.1c-2,0.4-4.1-0.1-5.7-1.5c0,0,2.5-1.1,2-8
	c-0.5-6.9,2.7-8.4,4.4-8.6c0.7-0.1,1.6,0.1,2.1,0.8c0.6-0.7,1.4-1,2.1-0.8c1.7,0.1,4.9,1.8,4.4,8.6c-0.5,6.9,2,8,2,8
	c-1.6,1.5-3.8,2.1-5.9,1.5c0.1,0.1,0.2,0.1,0.2,0.3c1.7,0.8,3.5,1.4,5.3,1.9l2.1,0.7l-1.4,0.7l-1,0.3 M-456.5,295.4L-456.5,295.4"/>
<path class="st0" d="M-455.6,259.2c-10.4,0-18.8,8.7-18.8,19.3c0,5.2,1.9,10,5.5,13.5l0,0c7.4,7.6,19.3,7.7,26.7,0.2
	c7.4-7.6,7.5-19.8,0.2-27.4C-445.7,261.3-450.6,259.2-455.6,259.2z M-468.3,290.4c-6.4-7.2-6-18.3,0.9-24.9c7.1-6.6,17.9-6.1,24.3,1
	c3,3.2,4.6,7.6,4.6,12.1c0,4.5-1.6,8.7-4.6,11.9"/>
</svg>
